<svg width="206" height="36" viewBox="0 0 206 36" fill="none" xmlns="http://www.w3.org/2000/svg">
<path d="M19.352 35.768C8.072 35.768 0.68 28.28 0.68 18.248C0.68 8.216 8.072 0.823999 19.352 0.823999C28.376 0.823999 32.84 5.48 33.512 9.272L32.696 9.368C31.736 3.56 24.296 1.64 19.688 1.64C11.24 1.64 7.832 8.12 7.832 17.96C7.832 29.048 12.2 34.856 19.352 34.856C22.856 34.856 29.576 34.808 35.096 29.384L35.672 29.912C29.912 35.576 22.952 35.768 19.352 35.768ZM39.275 35V11H46.139L56.171 24.104L66.155 11H73.067V35H66.251V12.296L56.171 25.4L46.091 12.296V35H39.275ZM88.4611 35.768C82.0291 35.768 77.1331 34.136 77.1331 26.264C77.1331 21.848 80.2051 19.112 84.1891 18.248L79.1491 15.848C80.6851 13.4 84.5251 10.28 93.2611 10.28C99.0211 10.28 106.221 11.672 106.221 19.976V35H99.4051V22.952L99.3091 23.528C98.2531 29.816 95.9491 35.768 88.4611 35.768ZM89.9971 18.536C86.1091 18.536 84.1411 20.744 84.1411 26.744C84.1411 33.032 85.5811 35 88.4131 35C97.2451 35 98.5891 25.448 99.1171 18.536H89.9971ZM86.1091 17.912C86.8291 17.816 87.5971 17.768 88.4131 17.768H99.2131C99.2131 12.872 98.9731 10.856 92.9251 10.856C87.7411 10.856 86.1091 16.76 86.1091 17.912ZM120.039 27.512C113.607 27.512 110.103 24.344 110.103 17.096V11H116.967V19.688C116.967 24.92 117.159 26.696 119.991 26.696C124.263 26.696 127.047 25.064 128.487 19.304C129.831 13.832 129.783 12.248 129.783 11H136.599V35H129.783V17.144C128.487 23.912 126.231 27.512 120.039 27.512ZM148.232 35H141.416V11H148.232V21.944H164.072V11H170.888V35H164.072V22.712H148.232V35ZM174.961 23.048C174.961 14.6 182.257 10.232 190.129 10.232C197.953 10.232 205.297 14.6 205.297 23.048C205.297 31.448 197.953 35.768 190.129 35.768C182.257 35.768 174.961 31.448 174.961 23.048ZM190.129 10.952C184.177 10.952 181.969 14.744 181.969 23.048C181.969 31.208 183.601 35.048 190.129 35.048C196.465 35.048 198.289 31.208 198.289 23.048C198.289 14.744 196.129 10.952 190.129 10.952Z" fill="#41493A"/>
</svg>
